<?xml version="1.0" standalone="no"?>
<!DOCTYPE svg PUBLIC "-//W3C//DTD SVG 20010904//EN"
 "http://www.w3.org/TR/2001/REC-SVG-20010904/DTD/svg10.dtd">
<svg version="1.0" xmlns="http://www.w3.org/2000/svg"
 width="512.000000pt" height="512.000000pt" viewBox="0 0 512.000000 512.000000"
 preserveAspectRatio="xMidYMid meet">
<metadata>
Created by potrace 1.13, written by Peter Selinger 2001-2015
</metadata>
<g transform="translate(0.000000,512.000000) scale(0.100000,-0.100000)"
fill="#373A4A" stroke="none">
<path d="M1215 5106 c-37 -17 -70 -52 -84 -89 -6 -16 -11 -103 -11 -203 l0
-174 -372 0 c-403 0 -431 -3 -526 -55 -103 -56 -187 -169 -212 -285 -8 -41
-10 -556 -8 -2016 l3 -1960 37 -75 c46 -93 122 -168 215 -212 l68 -32 2235 0
2235 0 68 32 c125 59 220 176 247 303 8 41 10 556 8 2015 l-3 1960 -36 75
c-47 97 -112 162 -209 209 l-75 36 -397 3 -397 3 -3 189 c-3 206 -6 215 -72
264 -39 29 -133 29 -172 0 -66 -49 -69 -58 -72 -265 l-3 -189 -479 0 -479 0
-3 189 c-3 207 -6 216 -72 265 -39 29 -133 29 -172 0 -66 -49 -69 -58 -72
-265 l-3 -189 -479 0 -479 0 -3 189 c-3 207 -6 216 -70 264 -34 25 -113 32
-153 13z m-93 -975 c3 -207 6 -216 72 -265 39 -29 133 -29 172 0 66 49 69 58
72 265 l3 189 479 0 479 0 3 -189 c3 -173 5 -192 24 -217 39 -53 71 -69 134
-69 63 0 95 16 134 69 19 25 21 44 24 217 l3 189 479 0 479 0 3 -189 c3 -173
5 -192 24 -217 39 -53 71 -69 134 -69 63 0 95 16 134 69 19 25 21 44 24 217
l3 189 366 0 365 0 34 -34 34 -34 -2 -1937 -3 -1937 -33 -29 -32 -29 -2171 0
-2171 0 -34 34 -34 34 0 1932 0 1932 34 34 34 34 365 0 366 0 3 -189z"/>
<path d="M1120 2960 l0 -240 320 0 320 0 0 240 0 240 -320 0 -320 0 0 -240z"/>
<path d="M2240 2960 l0 -240 320 0 320 0 0 240 0 240 -320 0 -320 0 0 -240z"/>
<path d="M3360 2960 l0 -240 320 0 320 0 0 240 0 240 -320 0 -320 0 0 -240z"/>
<path d="M1120 2160 l0 -240 320 0 320 0 0 240 0 240 -320 0 -320 0 0 -240z"/>
<path d="M2240 2160 l0 -240 320 0 320 0 0 240 0 240 -320 0 -320 0 0 -240z"/>
<path d="M3360 2160 l0 -240 320 0 320 0 0 240 0 240 -320 0 -320 0 0 -240z"/>
<path d="M1120 1360 l0 -240 320 0 320 0 0 240 0 240 -320 0 -320 0 0 -240z"/>
<path d="M2240 1360 l0 -240 320 0 320 0 0 240 0 240 -320 0 -320 0 0 -240z"/>
<path d="M3360 1360 l0 -240 320 0 320 0 0 240 0 240 -320 0 -320 0 0 -240z"/>
</g>
</svg>
